# xmcd CD database file
#
# Track frame offsets:
#	150
#	17197
#	36919
#	53971
#
# Disc length: 979 seconds
#
# Revision: 4
# Processed by: cddbd v1.5.2PL0 Copyright (c) Steve Scherf et al.
# Submitted via: CDex 1.70beta3
#
DISCID=2f03d104
DTITLE=片霧烈火 - 真・恋姫†無双 OP 「闘艶結義～トウエンノチカイ～」
DYEAR=2009
DGENRE=Anime
TTITLE0=闘艶結義～トウエンノチカイ～
TTITLE1=そばにいる
TTITLE2=闘艶結義～トウエンノチカイ～ [off vocal ver.]
TTITLE3=そばにいる [off vocal ver.]
EXTD=YEAR: 2009
EXTT0=
EXTT1=
EXTT2=
EXTT3=
PLAYORDER=
